{
    "asset" : {
        "generator" : "Khronos glTF Blender I/O v3.4.50",
        "version" : "2.0"
    },
    "scene" : 0,
    "scenes" : [
        {
            "name" : "Scene",
            "nodes" : [
                0,
                1,
                2,
                3,
                4
            ]
        }
    ],
    "nodes" : [
        {
            "mesh" : 0,
            "name" : "Text",
            "rotation" : [
                0,
                1,
                0,
                0
            ],
            "scale" : [
                -8.194507598876953,
                -20.92023277282715,
                -8.194507598876953
            ],
            "translation" : [
                2.1846742630004883,
                14.95018482208252,
                -49.399147033691406
            ]
        },
        {
            "mesh" : 1,
            "name" : "Text.001",
            "scale" : [
                9.414381980895996,
                9.414381980895996,
                9.414381980895996
            ],
            "translation" : [
                10.529217720031738,
                15.26421070098877,
                -9.948122024536133
            ]
        },
        {
            "mesh" : 2,
            "name" : "Text.002",
            "scale" : [
                2.990342140197754,
                2.990342140197754,
                2.990342140197754
            ],
            "translation" : [
                0.5179213285446167,
                15.07448673248291,
                24.003005981445312
            ]
        },
        {
            "mesh" : 3,
            "name" : "base"
        },
        {
            "mesh" : 4,
            "name" : "qrcode-_1_.svg_6mm",
            "rotation" : [
                0,
                1,
                0,
                0
            ],
            "scale" : [
                -0.17025664448738098,
                -0.4171404242515564,
                -0.17025664448738098
            ],
            "translation" : [
                7.268955707550049,
                14.729427337646484,
                -19.9322509765625
            ]
        }
    ],
    "materials" : [
        {
            "doubleSided" : true,
            "name" : "Material.001",
            "pbrMetallicRoughness" : {
                "baseColorFactor" : [
                    0.8000000715255737,
                    0,
                    0.005425174254924059,
                    1
                ],
                "metallicFactor" : 0,
                "roughnessFactor" : 0.5
            }
        }
    ],
    "meshes" : [
        {
            "name" : "Text",
            "primitives" : [
                {
                    "attributes" : {
                        "POSITION" : 0,
                        "TEXCOORD_0" : 1,
                        "NORMAL" : 2
                    },
                    "indices" : 3,
                    "material" : 0
                }
            ]
        },
        {
            "name" : "Text.001",
            "primitives" : [
                {
                    "attributes" : {
                        "POSITION" : 4,
                        "TEXCOORD_0" : 5,
                        "NORMAL" : 6
                    },
                    "indices" : 7
                }
            ]
        },
        {
            "name" : "Text.002",
            "primitives" : [
                {
                    "attributes" : {
                        "POSITION" : 8,
                        "TEXCOORD_0" : 9,
                        "NORMAL" : 10
                    },
                    "indices" : 11
                }
            ]
        },
        {
            "name" : "base",
            "primitives" : [
                {
                    "attributes" : {
                        "POSITION" : 12,
                        "TEXCOORD_0" : 13,
                        "NORMAL" : 14
                    },
                    "indices" : 15
                }
            ]
        },
        {
            "name" : "qrcode-_1_.svg_6mm",
            "primitives" : [
                {
                    "attributes" : {
                        "POSITION" : 16,
                        "NORMAL" : 17
                    },
                    "indices" : 18
                }
            ]
        }
    ],
    "accessors" : [
        {
            "bufferView" : 0,
            "componentType" : 5126,
            "count" : 5116,
            "max" : [
                4.27500057220459,
                0.03999999910593033,
                0.23000000417232513
            ],
            "min" : [
                0.07600000500679016,
                -0.03999999910593033,
                -0.6820000410079956
            ],
            "type" : "VEC3"
        },
        {
            "bufferView" : 1,
            "componentType" : 5126,
            "count" : 5116,
            "type" : "VEC2"
        },
        {
            "bufferView" : 2,
            "componentType" : 5126,
            "count" : 5116,
            "type" : "VEC3"
        },
        {
            "bufferView" : 3,
            "componentType" : 5123,
            "count" : 9336,
            "type" : "SCALAR"
        },
        {
            "bufferView" : 4,
            "componentType" : 5126,
            "count" : 2596,
            "max" : [
                1.965000033378601,
                0.10999999940395355,
                0.009000000543892384
            ],
            "min" : [
                0.20200000703334808,
                -0.10999999940395355,
                -0.6910000443458557
            ],
            "type" : "VEC3"
        },
        {
            "bufferView" : 5,
            "componentType" : 5126,
            "count" : 2596,
            "type" : "VEC2"
        },
        {
            "bufferView" : 6,
            "componentType" : 5126,
            "count" : 2596,
            "type" : "VEC3"
        },
        {
            "bufferView" : 7,
            "componentType" : 5123,
            "count" : 4836,
            "type" : "SCALAR"
        },
        {
            "bufferView" : 8,
            "componentType" : 5126,
            "count" : 21765,
            "max" : [
                12.093998908996582,
                0.38999995589256287,
                2.009000062942505
            ],
            "min" : [
                0.05000000074505806,
                -0.38999995589256287,
                -0.6820000410079956
            ],
            "type" : "VEC3"
        },
        {
            "bufferView" : 9,
            "componentType" : 5126,
            "count" : 21765,
            "type" : "VEC2"
        },
        {
            "bufferView" : 10,
            "componentType" : 5126,
            "count" : 21765,
            "type" : "VEC3"
        },
        {
            "bufferView" : 11,
            "componentType" : 5123,
            "count" : 40044,
            "type" : "SCALAR"
        },
        {
            "bufferView" : 12,
            "componentType" : 5126,
            "count" : 10212,
            "max" : [
                40,
                15,
                0
            ],
            "min" : [
                0,
                -6.661338147750939e-15,
                -60
            ],
            "type" : "VEC3"
        },
        {
            "bufferView" : 13,
            "componentType" : 5126,
            "count" : 10212,
            "type" : "VEC2"
        },
        {
            "bufferView" : 14,
            "componentType" : 5126,
            "count" : 10212,
            "type" : "VEC3"
        },
        {
            "bufferView" : 15,
            "componentType" : 5123,
            "count" : 21396,
            "type" : "SCALAR"
        },
        {
            "bufferView" : 16,
            "componentType" : 5126,
            "count" : 2608,
            "max" : [
                152.39999389648438,
                3,
                0
            ],
            "min" : [
                0,
                -3,
                -152.39999389648438
            ],
            "type" : "VEC3"
        },
        {
            "bufferView" : 17,
            "componentType" : 5126,
            "count" : 2608,
            "type" : "VEC3"
        },
        {
            "bufferView" : 18,
            "componentType" : 5123,
            "count" : 4536,
            "type" : "SCALAR"
        }
    ],
    "bufferViews" : [
        {
            "buffer" : 0,
            "byteLength" : 61392,
            "byteOffset" : 0,
            "target" : 34962
        },
        {
            "buffer" : 0,
            "byteLength" : 40928,
            "byteOffset" : 61392,
            "target" : 34962
        },
        {
            "buffer" : 0,
            "byteLength" : 61392,
            "byteOffset" : 102320,
            "target" : 34962
        },
        {
            "buffer" : 0,
            "byteLength" : 18672,
            "byteOffset" : 163712,
            "target" : 34963
        },
        {
            "buffer" : 0,
            "byteLength" : 31152,
            "byteOffset" : 182384,
            "target" : 34962
        },
        {
            "buffer" : 0,
            "byteLength" : 20768,
            "byteOffset" : 213536,
            "target" : 34962
        },
        {
            "buffer" : 0,
            "byteLength" : 31152,
            "byteOffset" : 234304,
            "target" : 34962
        },
        {
            "buffer" : 0,
            "byteLength" : 9672,
            "byteOffset" : 265456,
            "target" : 34963
        },
        {
            "buffer" : 0,
            "byteLength" : 261180,
            "byteOffset" : 275128,
            "target" : 34962
        },
        {
            "buffer" : 0,
            "byteLength" : 174120,
            "byteOffset" : 536308,
            "target" : 34962
        },
        {
            "buffer" : 0,
            "byteLength" : 261180,
            "byteOffset" : 710428,
            "target" : 34962
        },
        {
            "buffer" : 0,
            "byteLength" : 80088,
            "byteOffset" : 971608,
            "target" : 34963
        },
        {
            "buffer" : 0,
            "byteLength" : 122544,
            "byteOffset" : 1051696,
            "target" : 34962
        },
        {
            "buffer" : 0,
            "byteLength" : 81696,
            "byteOffset" : 1174240,
            "target" : 34962
        },
        {
            "buffer" : 0,
            "byteLength" : 122544,
            "byteOffset" : 1255936,
            "target" : 34962
        },
        {
            "buffer" : 0,
            "byteLength" : 42792,
            "byteOffset" : 1378480,
            "target" : 34963
        },
        {
            "buffer" : 0,
            "byteLength" : 31296,
            "byteOffset" : 1421272,
            "target" : 34962
        },
        {
            "buffer" : 0,
            "byteLength" : 31296,
            "byteOffset" : 1452568,
            "target" : 34962
        },
        {
            "buffer" : 0,
            "byteLength" : 9072,
            "byteOffset" : 1483864,
            "target" : 34963
        }
    ],
    "buffers" : [
        {
            "byteLength" : 1492936,
            "uri" : "data:application/octet-stream;base64,"
        }
    ]
}
